<?xml version="1.0" encoding="UTF-8" standalone="no" ?>
<!DOCTYPE svg PUBLIC "-//W3C//DTD SVG 1.1//EN" "http://www.w3.org/Graphics/SVG/1.1/DTD/svg11.dtd">
<svg xmlns="http://www.w3.org/2000/svg" xmlns:xlink="http://www.w3.org/1999/xlink" version="1.1" width="640" height="640" viewBox="0 0 640 640" xml:space="preserve">
<desc>Created with Fabric.js 5.3.0</desc>
<defs>
</defs>
<g transform="matrix(0.2166666546 0 0 0.8750000116 149.9461415042 353.3213655211)" id="Yn0a5nldmIgpnIv4Xf12k"  >
<path style="stroke: rgb(218,244,74); stroke-width: 0; stroke-dasharray: none; stroke-linecap: butt; stroke-dashoffset: 0; stroke-linejoin: miter; stroke-miterlimit: 4; fill: rgb(0,0,0); fill-rule: nonzero; opacity: 1;" vector-effect="non-scaling-stroke"  transform=" translate(0, 0)" d="M -68.94075 -68.94075 L 68.94075 -68.94075 L 68.94075 68.94075 L -68.94075 68.94075 z" stroke-linecap="round" />
</g>
<g transform="matrix(0.1477663031 -0.1584599599 0.8431667754 0.7862657382 197.4073218002 344.5074250769)" id="w_sJfPZWo4Cv-8sV8ZfOI"  >
<path style="stroke: rgb(218,244,74); stroke-width: 0; stroke-dasharray: none; stroke-linecap: butt; stroke-dashoffset: 0; stroke-linejoin: miter; stroke-miterlimit: 4; fill: rgb(0,0,0); fill-rule: nonzero; opacity: 1;" vector-effect="non-scaling-stroke"  transform=" translate(0, 0)" d="M -68.94075 -68.94075 L 68.94075 -68.94075 L 68.94075 68.94075 L -68.94075 68.94075 z" stroke-linecap="round" />
</g>
<g transform="matrix(0.1477663031 0.1584599599 -0.8500886683 0.7927205078 96.0904315638 449.3452971214)" id="SDrlsOw_-CgZWiuIZwyJc"  >
<path style="stroke: rgb(218,244,74); stroke-width: 0; stroke-dasharray: none; stroke-linecap: butt; stroke-dashoffset: 0; stroke-linejoin: miter; stroke-miterlimit: 4; fill: rgb(0,0,0); fill-rule: nonzero; opacity: 1;" vector-effect="non-scaling-stroke"  transform=" translate(0, 0)" d="M -68.94075 -68.94075 L 68.94075 -68.94075 L 68.94075 68.94075 L -68.94075 68.94075 z" stroke-linecap="round" />
</g>
<g transform="matrix(0 -0.2166666546 -0.9230170665 0 202.089502736 404.7228649333)" id="EyFzEuk_yAC1oDDVlbnx-"  >
<path style="stroke: rgb(218,244,74); stroke-width: 0; stroke-dasharray: none; stroke-linecap: butt; stroke-dashoffset: 0; stroke-linejoin: miter; stroke-miterlimit: 4; fill: rgb(0,0,0); fill-rule: nonzero; opacity: 1;" vector-effect="non-scaling-stroke"  transform=" translate(0, 0)" d="M -50.44691 -60.03313 L -0.4856800000000021 -68.94075 L 68.94073999999999 -68.94075 L 68.94073999999999 68.94075 L -68.94076 68.94075 z" stroke-linecap="round" />
</g>
<g transform="matrix(1.013079701 0 0 0.5202106173 251.7439255052 292.9982068053)" id="ELRomQ_OOo3Q8tBCyzRuc"  >
<path style="stroke: rgb(55,219,42); stroke-width: 0; stroke-dasharray: none; stroke-linecap: butt; stroke-dashoffset: 0; stroke-linejoin: miter; stroke-miterlimit: 4; fill: rgb(0,0,0); fill-rule: nonzero; opacity: 1;" vector-effect="non-scaling-stroke"  transform=" translate(-100.4834885884, -89.048475)" d="M 200.96698 0 L 200.96698 178.09695 L 144.22007000000002 178.09695 L 2.842170943040401e-14 0 z" stroke-linecap="round" />
</g>
</svg>